<svg xmlns="http://www.w3.org/2000/svg" viewBox="0 0 209.41 248.25"><title>Asset 1</title><g id="Layer_2" data-name="Layer 2"><g id="Layer_1-2" data-name="Layer 1"><path d="M75.41,241.75c4.69-16,9.18-32.78,4.29-49.29-.55-1.84-3.44-1.06-2.89.8,4.73,16,.24,32.22-4.29,47.69-.55,1.86,2.35,2.65,2.89.8Z"/><path d="M155.71,246c-4.76-8.24-7-17.39-7.94-26.79-.91-8.83-2-18.95.19-27.63,1.2-4.7,3.95-8.3,6.26-12.44a40.26,40.26,0,0,0,4.29-12.48c1.57-8.56,1.75-17.42,2.4-26.09l2.31-31.12c.29-4,1-8.25-.35-12.12-1.16-3.28-3.64-6-5.74-8.67-12.16-15.59-24-31.52-36.54-46.8-4.64-5.64-10-10.3-17.43-11.38C94.54,29.25,85.1,31,76.53,32,59.82,34,42.12,36.1,26.84,43.57,20.42,46.71,14,51,9.75,56.9,5.07,63.45,4.42,71.85,3.8,79.64a151.32,151.32,0,0,0,5.56,54c2.13,7.31,4.42,17.19,10.89,22,2.07,1.55,3.91,2,5.53,4.06,1.85,2.4,2.53,5.21,3.63,8A120.23,120.23,0,0,0,35,180.05a94,94,0,0,0,8.17,13.27c1.7,2.23,3.65,4,6.58,4.05,4.72,0,10.07-2.37,14.59-3.57l16.79-4.46-1.84-1.05-.39,3c-.7,1.81,2.2,2.59,2.89.8a8,8,0,0,0,.39-4.55,1.52,1.52,0,0,0-1.84-1.05c-8.71,2.32-17.4,4.75-26.13,6.94-3.2.81-5.46,1.61-8.08-1.18a31.57,31.57,0,0,1-3.24-4.61,115.88,115.88,0,0,1-11.56-23.06c-1-2.71-1.69-6-3.91-8-2.53-2.33-5.82-3-8-5.88-2.75-3.65-4.16-8.25-5.59-12.55a148.37,148.37,0,0,1-7.49-50.3c.21-8.3.24-18,3.79-25.62,3.47-7.47,11-12.47,18.19-16,15.28-7.47,33.37-9.51,50.06-11.39,8.23-.93,18.23-3.06,26.39-.91S117.75,43,122.6,49.24q16.52,21.17,33,42.32c3.59,4.62,5.26,8,4.9,14-.28,4.54-.68,9.08-1,13.62l-2,27.23c-.73,9.9-.63,20.59-5,29.71-1.88,3.87-4.68,7.18-6.26,11.21a36.6,36.6,0,0,0-2.2,11.53c-.8,16.2.92,34.4,9.15,48.66a1.5,1.5,0,0,0,2.59-1.52Z"/><path d="M66.48,153q27.88,1,55.78-.58c1.92-.11,1.93-3.11,0-3Q94.39,151,66.48,150c-1.93-.06-1.93,2.94,0,3Z"/><path d="M64.05,102.83c5.79,0,5.8-9,0-9s-5.8,9,0,9Z"/><path d="M110.11,102.83c5.79,0,5.8-9,0-9s-5.8,9,0,9Z"/><path d="M96.53,121.38a8.72,8.72,0,0,0,.79,3.51c.65,1.54,2,2.92,1,4.46-1.91,2.91-9.79-.28-12.29-1.43-1.75-.8-3.27,1.79-1.52,2.59,3.94,1.8,11.23,4.6,15.4,2,4.72-2.95-.38-7.45-.38-11.13a1.5,1.5,0,0,0-3,0Z"/><path d="M106.74,61.65H208a1.5,1.5,0,0,0,0-3H106.74a1.5,1.5,0,0,0,0,3Z"/><path d="M136.25,58.4c-1.85-8.9-3.8-18.08-9-25.53-3.32-4.75-7.81-8.55-12.35-12.16A207.55,207.55,0,0,0,94,6C89,2.91,83.6.07,77.74,0,71-.08,64.81,3.54,59,7c-4.45,2.69-8.94,5.41-12.73,9-6.8,6.39-11.92,15.79-21,17.77-1.77.38-3.65.46-5.22,1.36-4.11,2.36-3.65,8.37-5.81,12.59-1.88,3.69-5.73,5.86-9,8.47s-6.15,6.61-5,10.6c1.5,5.29,8.46,6.28,14,6.25,19.93-.13,39.89-.26,59.71-2.28,8.18-.84,16.44-2,24.57-.77,4.21.64,8.36,1.91,12.62,1.88,10.32-.06,18.91-7.53,26.46-14.57"/></g></g></svg>