<svg xmlns="http://www.w3.org/2000/svg" viewBox="0 0 210.85 249.74"><defs><style>.cls-1{fill:#221d3d;}</style></defs><title>self-portrait_1</title><g id="Layer_2" data-name="Layer 2"><g id="Layer_1-2" data-name="Layer 1"><path class="cls-1" d="M76.86,242.15c4.76-16.26,9.25-33.32,4.29-50.08-1.1-3.7-6.89-2.13-5.79,1.59,4.65,15.71.17,31.68-4.29,46.89-1.09,3.71,4.7,5.3,5.79,1.6Z"/><path class="cls-1" d="M157,245.26c-4.62-8-6.79-16.91-7.74-26-.9-8.69-2-18.69.14-27.23,1.16-4.57,3.86-8.06,6.1-12.09A41.37,41.37,0,0,0,160,167.07c1.59-8.7,1.79-17.69,2.45-26.49l2.31-31.12c.31-4.16,1-8.49-.41-12.52-1.21-3.55-3.85-6.43-6.12-9.33C146,72,134.2,56.09,121.65,40.81c-4.8-5.84-10.41-10.6-18.09-11.76-8.76-1.32-18.32.41-27,1.44-17,2-34.91,4.19-50.44,11.78C19.42,45.53,12.8,50,8.45,56.14,3.64,62.93,2.94,71.58,2.3,79.64a152.42,152.42,0,0,0,5.62,54.44c2.22,7.64,4.62,17.56,11.27,22.68,1.88,1.45,4,2,5.49,3.85,1.71,2.11,2.3,5,3.29,7.57a125,125,0,0,0,5.77,12.63c3.08,5.83,8.07,18.08,16,18.06,4.9,0,10.3-2.38,15-3.63l16.79-4.46-3.69-2.09-.39,2.16c-1.38,3.6,4.42,5.17,5.78,1.59a9.48,9.48,0,0,0,.4-5.35c-.26-1.61-2.27-2.47-3.69-2.09-8.71,2.31-17.4,4.72-26.13,6.94-2.66.67-4.3,1.45-6.5-.65a24.35,24.35,0,0,1-3.12-4.45,117.79,117.79,0,0,1-6.51-11.39,111.08,111.08,0,0,1-4.9-11.32c-1.09-3-1.88-6.46-4.3-8.71s-5.75-2.9-7.88-5.72c-2.63-3.48-4-7.94-5.33-12a147.26,147.26,0,0,1-7.43-49.9c.2-8.07.18-17.61,3.67-25,3.35-7.16,10.68-11.91,17.56-15.27,15-7.34,32.9-9.33,49.31-11.18,8.09-.91,18-3,26-1,7.74,2,12.48,9,17.13,15q16.5,21.17,33,42.32c3.36,4.32,4.8,7.3,4.46,12.95-.28,4.54-.68,9.08-1,13.62l-2,27.23c-.71,9.61-.57,20.09-4.84,29-1.9,3.94-4.71,7.31-6.33,11.4a38.09,38.09,0,0,0-2.33,12.1c-.81,16.47,1,34.93,9.36,49.41,1.93,3.35,7.12.33,5.18-3Z"/><path class="cls-1" d="M66.48,153.76q27.88,1,55.78-.58c2.88-.16,2.89-4.66,0-4.5q-27.87,1.55-55.78.58c-2.9-.1-2.9,4.4,0,4.5Z"/><path class="cls-1" d="M64.05,102.83c5.79,0,5.8-9,0-9s-5.8,9,0,9Z"/><path class="cls-1" d="M110.11,102.83c5.79,0,5.8-9,0-9s-5.8,9,0,9Z"/><path class="cls-1" d="M95.78,121.38a9.38,9.38,0,0,0,.89,3.89c.46,1,1.85,2.83,1.19,3.82-.81,1.19-4.22.34-5.4.13a26,26,0,0,1-6.06-2c-2.61-1.19-4.9,2.69-2.27,3.89,4.26,2,11.67,4.72,16.15,2a5,5,0,0,0,2.34-5c-.33-2.38-2.34-4.32-2.34-6.73,0-2.89-4.5-2.9-4.5,0Z"/><path class="cls-1" d="M106.74,63.15H208c3.86,0,3.86-6,0-6H106.74c-3.86,0-3.86,6,0,6Z"/><path class="cls-1" d="M136.25,58.4c-1.85-8.9-3.8-18.08-9-25.53-3.32-4.75-7.81-8.55-12.35-12.16A207.55,207.55,0,0,0,94,6C89,2.91,83.6.07,77.74,0,71-.08,64.81,3.54,59,7c-4.45,2.69-8.94,5.41-12.73,9-6.8,6.39-11.92,15.79-21,17.77-1.77.38-3.65.46-5.22,1.36-4.11,2.36-3.65,8.37-5.81,12.59-1.88,3.69-5.73,5.86-9,8.47s-6.15,6.61-5,10.6c1.5,5.29,8.46,6.28,14,6.25,19.93-.13,39.89-.26,59.71-2.28,8.18-.84,16.44-2,24.57-.77,4.21.64,8.36,1.91,12.62,1.88,10.32-.06,18.91-7.53,26.46-14.57"/></g></g></svg>